PathFileType	4	(X/Y/Z)	C:/Users/opensim2020/Desktop/walking_exp_matlab/subject02_walking06_static.trc																																																																																																																									
DataRate	CameraRate	NumFrames	NumMarkers	Units	OrigDataRate	OrigDataStartFrame	OrigNumFrames																																																																																																																					
100	100	4	41	mm	100	108	287																																																																																																																					
Frame#	Time	LFHD			RFHD			LBHD			RBHD			C7			T10			CLAV			STRN			RBAK			LSHO			LUPA			LELB			LFRM			LWRA			LWRB			LFIN			RSHO			RUPA			RELB			RFRM			RWRA			RWRB			RFIN			LASI			RASI			LPSI			RPSI			LTHI			LKNE			LTIB			LANK			LHEE			LTOE			RTHI			RKNE			RTIB			RANK			RHEE			RTOE			*39			*40		
		X1	Y1	Z1	X2	Y2	Z2	X3	Y3	Z3	X4	Y4	Z4	X5	Y5	Z5	X6	Y6	Z6	X7	Y7	Z7	X8	Y8	Z8	X9	Y9	Z9	X10	Y10	Z10	X11	Y11	Z11	X12	Y12	Z12	X13	Y13	Z13	X14	Y14	Z14	X15	Y15	Z15	X16	Y16	Z16	X17	Y17	Z17	X18	Y18	Z18	X19	Y19	Z19	X20	Y20	Z20	X21	Y21	Z21	X22	Y22	Z22	X23	Y23	Z23	X24	Y24	Z24	X25	Y25	Z25	X26	Y26	Z26	X27	Y27	Z27	X28	Y28	Z28	X29	Y29	Z29	X30	Y30	Z30	X31	Y31	Z31	X32	Y32	Z32	X33	Y33	Z33	X34	Y34	Z34	X35	Y35	Z35	X36	Y36	Z36	X37	Y37	Z37	X38	Y38	Z38	X39	Y39	Z39	X40	Y40	Z40	X41	Y41	Z41
																																																																																																																												
108	1.07	19.39216	1750.89697	-695.75391	5.01638	1732.70251	-554.16663	-103.06721	1665.59937	-719.02313	-130.01427	1644.87219	-579.2196	-152.48103	1523.49744	-645.53735	-193.58305	1248.70166	-641.41333	-2.30335	1472.88977	-652.34222	62.19864	1306.98694	-640.73828	-191.42903	1351.56934	-570.10455	-53.50001	1513.64868	-820.27356	-48.13643	1330.69397	-927.35022	-57.32438	1189.86597	-955.13037	-41.48879	1054.62939	-964.77808	5.76054	932.24158	-917.36877	-31.08386	931.86688	-960.13562	-7.91888	870.01587	-958.72583	-56.55398	1511.71777	-462.7648	-58.11727	1342.19641	-347.06396	-36.59997	1194.60498	-316.43973	0.87761	1076.33557	-308.05112	42.45066	951.19556	-343.30295	11.63673	946.21863	-296.35016	51.01685	886.70831	-307.81488	39.20624	993.71094	-759.76477	28.41039	985.8988	-509.28543	-173.37473	1028.49573	-692.2384	-182.62692	1029.97192	-577.49768	-35.83696	686.14783	-839.77759	-69.84457	484.1669	-829.07452	-125.52444	299.41498	-852.67139	-116.19635	72.31764	-847.38733	-151.65094	40.81305	-801.43298	42.83152	30.97601	-860.3457	-59.96867	682.85791	-416.96664	-59.9418	471.68674	-432.92218	-111.78352	292.15536	-404.92789	-134.02327	97.02314	-415.49792	-166.51051	37.35187	-465.27988	15.32586	37.99986	-379.78165	-97.34588	1808.37451	-619.11865	3357.17651	1034.02527	2845.67969
109	1.08	19.40707	1751.01904	-695.99994	5.11518	1732.68188	-554.21429	-103.13906	1665.60913	-718.9585	-129.95905	1644.88	-579.14508	-152.48169	1523.46069	-645.42932	-193.55989	1248.67676	-641.3125	-2.2777	1472.87109	-652.36871	62.21735	1306.91003	-640.7569	-191.38898	1351.57324	-570.04047	-53.76231	1513.57935	-820.26978	-48.47259	1330.61267	-927.26337	-57.40343	1189.69556	-954.93854	-41.33244	1054.40967	-964.22559	6.17523	932.29755	-916.48517	-30.64676	931.78625	-959.65283	-7.32306	869.89441	-957.7063	-56.50212	1511.68713	-462.71994	-57.70007	1341.99451	-347.46045	-36.56997	1194.54456	-316.49905	0.92786	1076.26233	-308.27786	42.34053	951.26465	-343.45526	11.57877	946.04944	-296.58411	51.06201	886.73651	-308.15009	39.26545	993.68829	-759.73956	28.48982	985.88983	-509.25876	-173.33206	1028.48071	-692.21588	-182.58524	1029.94812	-577.45874	-35.75361	686.15222	-839.77051	-69.77072	484.15729	-829.06055	-125.48573	299.43765	-852.66998	-116.19482	72.32031	-847.3844	-151.66757	40.84991	-801.43384	42.83192	30.97943	-860.32831	-60.19456	682.93817	-416.49213	-60.02372	471.67926	-432.76306	-111.79333	292.17322	-404.92603	-134.0369	97.01173	-415.47183	-166.68915	37.4769	-465.24414	15.33839	38.02609	-379.78485	-97.30745	1808.35193	-619.05072	3360.24512	1034.06653	2845.15625
110	1.09	19.30915	1750.92114	-695.84906	5.17694	1732.69177	-554.23212	-103.20605	1665.63391	-718.90021	-129.86794	1644.86218	-579.05542	-152.48882	1523.42566	-645.34375	-193.5085	1248.66187	-641.22284	-2.29178	1472.82703	-652.38898	62.24607	1306.82202	-640.74811	-191.36687	1351.58667	-569.89844	-54.03411	1513.54224	-820.27502	-48.86318	1330.573	-927.17249	-57.48816	1189.5332	-954.8067	-41.16591	1054.21216	-963.67767	6.62196	932.3385	-915.61334	-30.22963	931.63062	-958.76416	-6.78927	869.86993	-956.66669	-56.42571	1511.69702	-462.68567	-57.68708	1341.93835	-347.48721	-36.51711	1194.46729	-316.53311	1.05702	1076.18896	-308.4696	42.87362	951.18964	-343.8891	11.95083	945.90002	-297.23785	51.24003	886.5957	-308.57068	39.33282	993.66815	-759.71832	28.55962	985.87054	-509.22067	-173.26378	1028.46948	-692.19568	-182.50531	1029.91956	-577.42035	-35.63919	686.16412	-839.75616	-69.69805	484.18387	-829.0462	-125.41822	299.44974	-852.67633	-116.1709	72.36118	-847.40009	-151.6622	40.8017	-801.4068	42.85143	30.98931	-860.33887	-59.89316	682.83917	-416.94498	-59.94436	471.68262	-432.89417	-111.7806	292.1889	-404.87631	-134.01013	97.00871	-415.46634	-166.68198	37.50899	-465.23026	15.31187	38.00784	-379.79309	-97.29189	1808.34888	-618.95404	3357.38477	1033.92725	2845.73267
111	1.1	19.31256	1751.04932	-696.07452	5.30172	1732.69592	-554.24829	-103.23016	1665.62537	-718.87775	-129.82607	1644.84253	-578.99811	-152.49881	1523.37097	-645.23804	-193.47479	1248.63159	-641.12579	-2.26574	1472.78613	-652.38611	62.30128	1306.77551	-640.72742	-191.3055	1351.58008	-569.86768	-54.30017	1513.55298	-820.30597	-49.14648	1330.49207	-927.25201	-57.63942	1189.41138	-954.71118	-41.00665	1054.11646	-963.26074	7.01429	932.48346	-914.76776	-29.72556	931.57025	-958.04199	-6.16556	869.85303	-955.71124	-56.31974	1511.66736	-462.63904	-57.65728	1341.90405	-347.39648	-36.54219	1194.42346	-316.5744	1.07531	1076.10718	-308.63174	42.27297	951.15778	-344.14655	12.01173	945.84192	-297.48529	51.26506	886.56732	-308.90298	39.43494	993.66254	-759.67877	28.6298	985.85663	-509.19745	-173.20505	1028.45581	-692.17664	-182.44386	1029.91736	-577.39868	-35.55051	686.16315	-839.7511	-69.61738	484.18393	-829.05542	-125.18812	299.30206	-852.47034	-116.16829	72.32742	-847.38068	-151.63515	40.78425	-801.35559	42.85781	30.988	-860.34857	-59.88761	682.83551	-416.92383	-59.99096	471.6976	-432.74121	-111.76777	292.16937	-404.91214	-134.01331	97.03336	-415.45944	-166.53589	37.37139	-465.27228	15.31685	37.99844	-379.77124	-97.26331	1808.34436	-618.90173	3357.32617	1033.97205	2845.84888
